<?xml version="1.0" standalone="no"?>
<!DOCTYPE svg PUBLIC "-//W3C//DTD SVG 20010904//EN"
 "http://www.w3.org/TR/2001/REC-SVG-20010904/DTD/svg10.dtd">
<svg version="1.0" xmlns="http://www.w3.org/2000/svg"
 width="405.000000pt" height="404.000000pt" viewBox="0 0 405.000000 404.000000"
 preserveAspectRatio="xMidYMid meet">
<metadata>
Created by potrace 1.16, written by Peter Selinger 2001-2019
</metadata>
<g transform="translate(0.000000,404.000000) scale(0.100000,-0.100000)"
fill="#000000" stroke="none">
<path d="M0 2020 l0 -2020 2025 0 2025 0 0 2020 0 2020 -2025 0 -2025 0 0
-2020z m4010 0 l0 -1990 -1990 0 -1990 0 0 1990 0 1990 1990 0 1990 0 0 -1990z"/>
<path d="M1735 3846 c-115 -17 -305 -61 -372 -86 -112 -42 -380 -184 -457
-243 -116 -89 -266 -229 -347 -327 -138 -166 -256 -378 -310 -555 -17 -55 -39
-127 -50 -160 -32 -105 -51 -319 -46 -530 4 -176 7 -201 40 -335 44 -180 78
-273 157 -430 194 -386 591 -740 990 -883 97 -35 310 -86 395 -96 117 -14 375
-14 490 0 187 22 421 94 570 174 252 134 264 143 463 325 125 113 285 326 362
480 72 145 154 385 176 515 21 122 30 469 15 561 -6 35 -16 94 -22 132 -22
136 -98 349 -176 492 -73 135 -204 317 -290 406 -283 291 -559 446 -963 540
-102 24 -138 27 -325 30 -137 2 -241 -2 -300 -10z m566 -404 c133 -31 233 -69
360 -134 149 -76 262 -161 389 -295 l103 -108 -38 -3 c-21 -2 -48 1 -59 7 -12
5 -37 12 -56 15 -34 6 -103 51 -178 117 -18 16 -50 38 -72 49 -22 11 -40 26
-40 33 0 7 -14 18 -30 25 l-30 14 19 27 c27 38 17 64 -34 89 l-44 21 -20 -25
-20 -26 -35 22 c-45 27 -62 19 -118 -58 -23 -31 -45 -59 -49 -62 -3 -3 -19
-25 -35 -50 -39 -60 -66 -90 -81 -90 -7 0 -13 -4 -13 -10 0 -5 4 -10 9 -10 5
0 11 -10 14 -22 4 -12 9 -19 13 -15 12 11 46 -13 36 -26 -4 -7 -14 -31 -21
-54 -6 -23 -20 -48 -30 -55 -10 -7 -30 -35 -45 -63 -50 -91 -91 -162 -102
-176 -6 -8 -17 -35 -25 -61 -7 -27 -16 -48 -20 -48 -4 0 -10 -12 -14 -27 -3
-16 -22 -60 -41 -100 l-36 -72 -29 55 c-16 30 -34 73 -40 95 -7 21 -15 39 -18
39 -4 0 -13 21 -20 48 -8 26 -19 53 -25 61 -11 14 -52 85 -102 176 -15 28 -35
56 -45 63 -10 7 -24 32 -30 55 -7 23 -17 47 -21 54 -10 13 24 37 36 26 4 -4 9
3 13 15 3 12 9 22 14 22 5 0 9 5 9 10 0 6 -6 10 -13 10 -15 0 -42 30 -81 90
-16 25 -32 47 -35 50 -4 3 -26 31 -49 62 -56 77 -73 85 -118 58 l-35 -22 -20
26 -20 25 -44 -21 c-51 -25 -61 -51 -34 -89 l19 -27 -30 -14 c-16 -7 -30 -18
-30 -25 0 -7 -18 -22 -40 -33 -22 -11 -54 -33 -72 -49 -75 -66 -144 -111 -178
-117 -19 -3 -45 -10 -57 -16 -111 -54 149 219 309 325 194 128 355 190 628
241 14 2 113 3 220 1 152 -2 214 -8 281 -23z m921 -583 c28 1 48 -2 48 -9 0
-5 19 -10 43 -10 65 0 70 -7 62 -86 -4 -38 -11 -82 -16 -99 -5 -16 -11 -48
-13 -70 -2 -22 -6 -47 -9 -55 -3 -8 -8 -36 -12 -62 -3 -27 -10 -48 -14 -48 -5
0 -12 -15 -15 -33 -11 -61 -95 -210 -147 -259 -27 -27 -52 -48 -56 -48 -5 0
-24 -16 -43 -35 -19 -19 -38 -35 -44 -35 -5 0 -18 -7 -28 -17 -19 -17 -49 -36
-84 -52 -11 -5 -42 -23 -69 -40 -68 -43 -79 -41 -59 12 9 23 22 53 29 67 7 14
16 42 20 63 4 20 11 40 16 43 5 3 9 18 9 35 0 16 4 29 9 29 6 0 18 13 27 29
10 17 21 28 25 25 4 -2 22 22 40 53 18 32 36 60 39 63 15 11 88 157 95 188 3
17 10 32 15 32 4 0 11 21 15 48 4 26 10 52 15 57 7 10 12 38 26 167 4 37 10
55 17 51 6 -3 32 -5 59 -4z m-2454 -41 c0 -24 5 -56 11 -71 6 -16 11 -46 11
-67 0 -21 4 -41 9 -44 5 -4 12 -29 16 -56 4 -28 11 -50 15 -50 5 0 12 -15 15
-32 7 -31 80 -177 95 -188 3 -3 21 -31 39 -63 18 -31 36 -55 40 -53 4 3 15 -8
25 -25 9 -16 21 -29 27 -29 5 0 9 -13 9 -29 0 -17 4 -32 9 -35 5 -3 12 -23 16
-43 4 -21 13 -49 20 -63 7 -14 20 -44 29 -67 20 -53 9 -55 -59 -12 -27 17 -58
35 -69 40 -35 16 -65 35 -84 52 -10 10 -23 17 -28 17 -6 0 -25 16 -44 35 -19
19 -38 35 -43 35 -4 0 -29 21 -56 48 -52 49 -136 198 -147 259 -3 18 -10 33
-14 33 -4 0 -11 24 -14 52 -4 29 -11 57 -16 63 -4 5 -10 33 -13 60 -3 28 -11
90 -17 139 -14 102 -12 106 58 106 23 0 42 4 42 10 0 5 26 11 58 13 31 2 58 4
59 5 1 1 1 -17 1 -40z m1702 -18 c6 -11 23 -26 38 -34 49 -26 222 -206 197
-206 -3 0 10 -24 30 -52 19 -29 35 -60 35 -68 0 -9 4 -20 9 -26 7 -8 15 -27
40 -104 9 -27 3 -213 -7 -219 -5 -3 -13 -22 -17 -41 -4 -19 -15 -48 -25 -65
-10 -16 -23 -48 -30 -70 -7 -22 -22 -53 -32 -68 -22 -31 -16 -48 10 -29 9 7
33 19 52 27 19 9 44 21 55 27 11 7 40 23 65 36 25 13 54 32 65 42 11 10 30 23
43 27 13 5 65 45 117 88 87 74 97 87 144 180 52 103 87 197 93 250 3 25 7 19
26 -40 49 -159 57 -220 57 -435 0 -219 -10 -289 -62 -449 -35 -109 -114 -270
-181 -370 -72 -108 -221 -264 -332 -347 -95 -72 -305 -181 -421 -218 -162 -52
-230 -61 -449 -61 -219 0 -285 9 -447 61 -109 36 -271 114 -371 181 -107 71
-265 222 -347 332 -118 157 -217 376 -261 581 -27 122 -27 446 0 577 10 51 22
90 27 87 5 -3 9 -13 9 -22 0 -9 25 -66 56 -127 53 -104 60 -114 149 -190 52
-43 104 -83 117 -88 13 -4 32 -17 43 -27 11 -10 40 -29 65 -42 25 -13 54 -29
65 -36 11 -6 36 -18 55 -27 19 -8 43 -20 52 -27 26 -19 32 -2 10 29 -10 15
-25 46 -32 68 -7 22 -20 54 -30 70 -10 17 -21 46 -25 65 -4 19 -12 38 -17 41
-10 6 -16 192 -7 219 25 77 33 96 40 104 5 6 9 17 9 26 0 8 16 39 35 68 20 28
33 52 30 52 -4 0 4 15 16 33 28 39 159 167 172 167 5 0 22 14 37 31 28 29 30
29 58 15 16 -8 41 -30 55 -50 15 -19 41 -50 60 -69 18 -19 39 -48 47 -64 8
-15 27 -41 43 -56 15 -16 27 -35 27 -44 0 -8 6 -29 14 -46 20 -45 66 -199 66
-219 0 -10 5 -18 10 -18 6 0 10 -7 10 -15 0 -9 9 -43 21 -77 19 -58 20 -68 8
-140 -7 -43 -19 -84 -26 -90 -7 -6 -13 -21 -13 -33 0 -13 -8 -43 -19 -67 -10
-24 -22 -63 -26 -86 -4 -23 -10 -42 -15 -42 -4 0 -11 -17 -15 -37 -3 -21 -12
-47 -19 -58 -7 -11 -19 -45 -26 -75 -7 -30 -21 -62 -30 -70 -9 -8 -24 -29 -33
-46 -20 -39 -131 -124 -161 -124 -29 0 -64 -35 -43 -43 12 -5 39 -72 43 -108
2 -21 50 -112 88 -166 30 -43 62 -59 52 -25 -4 11 9 34 39 67 53 59 97 120
127 178 11 23 25 44 29 48 5 3 22 32 39 64 21 41 30 73 30 106 0 26 5 51 10
54 6 3 10 21 10 39 0 19 7 53 15 76 8 23 15 55 15 71 0 15 5 31 10 34 6 3 10
17 10 31 0 14 4 22 10 19 6 -3 10 -17 10 -30 0 -13 5 -27 10 -30 6 -3 10 -19
10 -34 0 -16 7 -48 15 -71 8 -23 15 -57 15 -76 0 -18 5 -36 10 -39 6 -3 10
-28 10 -54 0 -33 9 -65 30 -106 17 -32 34 -61 39 -64 4 -4 18 -25 29 -48 30
-58 74 -119 127 -178 30 -33 43 -56 39 -67 -10 -34 22 -18 52 25 38 54 86 145
88 166 4 36 31 103 43 108 21 8 -14 43 -43 43 -30 0 -141 85 -161 124 -9 17
-24 38 -33 46 -9 8 -23 40 -30 70 -7 30 -19 64 -26 75 -7 11 -16 37 -19 58 -4
20 -11 37 -15 37 -5 0 -11 19 -15 42 -4 23 -16 62 -26 86 -11 24 -19 54 -19
67 0 12 -7 28 -15 35 -8 7 -15 23 -15 37 0 13 -7 37 -15 54 -13 23 -14 39 -6
77 15 73 44 167 53 170 4 2 8 11 8 20 0 20 47 174 66 219 8 17 14 38 14 46 0
9 12 28 28 44 15 15 33 41 41 56 8 15 32 47 54 70 22 23 46 53 55 66 15 22 68
61 84 61 4 0 12 -9 18 -20z"/>
</g>
</svg>
