<?xml version="1.0" standalone="no"?>
<!DOCTYPE svg PUBLIC "-//W3C//DTD SVG 20010904//EN"
 "http://www.w3.org/TR/2001/REC-SVG-20010904/DTD/svg10.dtd">
<svg version="1.0" xmlns="http://www.w3.org/2000/svg"
 width="561.000000pt" height="558.000000pt" viewBox="0 0 561.000000 558.000000"
 preserveAspectRatio="xMidYMid meet">
<metadata>
Created by potrace 1.16, written by Peter Selinger 2001-2019
</metadata>
<g transform="translate(0.000000,558.000000) scale(0.100000,-0.100000)"
fill="#000000" stroke="none">
<path d="M64 5574 c-6 -2 41 -55 103 -116 l113 -112 113 112 c106 106 137 128
137 100 0 -7 -51 -63 -112 -125 l-113 -113 103 -103 c56 -56 102 -108 102
-115 0 -28 -30 -7 -127 90 l-103 103 -108 -108 c-59 -59 -113 -107 -120 -107
-28 0 -6 30 95 132 l107 108 -109 113 c-61 63 -113 115 -116 116 -28 6 -29
-92 -29 -2762 0 -1708 4 -2718 10 -2727 8 -12 31 7 120 95 l110 110 -110 110
c-104 104 -126 135 -98 135 7 0 62 -50 123 -110 l110 -110 105 105 c99 99 130
121 130 92 0 -7 -47 -59 -105 -117 l-105 -105 110 -110 c60 -61 110 -116 110
-123 0 -28 -31 -6 -135 98 l-110 110 -110 -110 c-88 -89 -107 -112 -95 -120 9
-6 1026 -10 2746 -10 2168 0 2734 3 2747 13 16 11 6 23 -88 117 l-105 105
-113 -113 c-106 -106 -137 -128 -137 -100 0 7 51 63 112 125 l113 113 -113
113 c-61 62 -112 118 -112 125 0 28 31 6 137 -100 l113 -112 123 119 124 120
2 2273 c1 1796 -2 2272 -11 2272 -7 0 -63 51 -125 112 l-113 113 -108 -108
c-101 -101 -132 -123 -132 -95 0 7 48 61 107 120 l108 108 -113 113 c-61 62
-112 118 -112 125 0 28 31 6 137 -100 l113 -113 105 105 c94 94 104 106 88
118 -13 9 -578 12 -2747 11 -1502 0 -2736 -3 -2742 -5z m946 -249 l0 -235
-235 0 -235 0 0 235 0 235 235 0 235 0 0 -235z m510 0 l0 -235 -235 0 -235 0
0 235 0 235 235 0 235 0 0 -235z m510 0 l0 -235 -235 0 -235 0 0 235 0 235
235 0 235 0 0 -235z m510 0 l0 -235 -235 0 -235 0 0 235 0 235 235 0 235 0 0
-235z m510 0 l0 -235 -235 0 -235 0 0 235 0 235 235 0 235 0 0 -235z m510 0
l0 -235 -235 0 -235 0 0 235 0 235 235 0 235 0 0 -235z m510 0 l0 -235 -235 0
-235 0 0 235 0 235 235 0 235 0 0 -235z m510 0 l0 -235 -235 0 -235 0 0 235 0
235 235 0 235 0 0 -235z m510 0 l0 -235 -235 0 -235 0 0 235 0 235 235 0 235
0 0 -235z m-4590 -510 l0 -235 -235 0 -235 0 0 235 0 235 235 0 235 0 0 -235z
m510 0 l0 -235 -235 0 -235 0 0 235 0 235 235 0 235 0 0 -235z m510 0 l0 -235
-235 0 -235 0 0 235 0 235 235 0 235 0 0 -235z m510 0 l0 -235 -235 0 -235 0
0 235 0 235 235 0 235 0 0 -235z m510 0 l0 -235 -235 0 -235 0 0 235 0 235
235 0 235 0 0 -235z m510 0 l0 -235 -235 0 -235 0 0 235 0 235 235 0 235 0 0
-235z m510 0 l0 -235 -235 0 -235 0 0 235 0 235 235 0 235 0 0 -235z m510 0
l0 -235 -235 0 -235 0 0 235 0 235 235 0 235 0 0 -235z m510 0 l0 -235 -235 0
-235 0 0 235 0 235 235 0 235 0 0 -235z m510 0 l0 -235 -235 0 -235 0 0 235 0
235 235 0 235 0 0 -235z m510 0 l0 -235 -235 0 -235 0 0 235 0 235 235 0 235
0 0 -235z m-5100 -510 l0 -235 -235 0 -235 0 0 235 0 235 235 0 235 0 0 -235z
m510 0 l0 -235 -235 0 -235 0 0 235 0 235 235 0 235 0 0 -235z m510 0 l0 -235
-235 0 -235 0 0 235 0 235 235 0 235 0 0 -235z m510 0 l0 -235 -235 0 -235 0
0 235 0 235 235 0 235 0 0 -235z m510 0 l0 -235 -235 0 -235 0 0 235 0 235
235 0 235 0 0 -235z m510 0 l0 -235 -235 0 -235 0 0 235 0 235 235 0 235 0 0
-235z m510 0 l0 -235 -235 0 -235 0 0 235 0 235 235 0 235 0 0 -235z m510 0
l0 -235 -235 0 -235 0 0 235 0 235 235 0 235 0 0 -235z m510 0 l0 -235 -235 0
-235 0 0 235 0 235 235 0 235 0 0 -235z m510 0 l0 -235 -235 0 -235 0 0 235 0
235 235 0 235 0 0 -235z m510 0 l0 -235 -235 0 -235 0 0 235 0 235 235 0 235
0 0 -235z m-5100 -510 l0 -235 -235 0 -235 0 0 235 0 235 235 0 235 0 0 -235z
m510 0 l0 -235 -235 0 -235 0 0 235 0 235 235 0 235 0 0 -235z m510 0 l0 -235
-235 0 -235 0 0 235 0 235 235 0 235 0 0 -235z m510 0 l0 -235 -235 0 -235 0
0 235 0 235 235 0 235 0 0 -235z m510 0 l0 -235 -235 0 -235 0 0 235 0 235
235 0 235 0 0 -235z m510 0 l0 -235 -235 0 -235 0 0 235 0 235 235 0 235 0 0
-235z m510 0 l0 -235 -235 0 -235 0 0 235 0 235 235 0 235 0 0 -235z m510 0
l0 -235 -235 0 -235 0 0 235 0 235 235 0 235 0 0 -235z m510 0 l0 -235 -235 0
-235 0 0 235 0 235 235 0 235 0 0 -235z m510 0 l0 -235 -235 0 -235 0 0 235 0
235 235 0 235 0 0 -235z m510 0 l0 -235 -235 0 -235 0 0 235 0 235 235 0 235
0 0 -235z m-5100 -510 l0 -235 -235 0 -235 0 0 235 0 235 235 0 235 0 0 -235z
m510 0 l0 -235 -235 0 -235 0 0 235 0 235 235 0 235 0 0 -235z m510 0 l0 -235
-235 0 -235 0 0 235 0 235 235 0 235 0 0 -235z m510 0 l0 -235 -235 0 -235 0
0 235 0 235 235 0 235 0 0 -235z m510 0 l0 -235 -235 0 -235 0 0 235 0 235
235 0 235 0 0 -235z m510 0 l0 -235 -235 0 -235 0 0 235 0 235 235 0 235 0 0
-235z m510 0 l0 -235 -235 0 -235 0 0 235 0 235 235 0 235 0 0 -235z m510 0
l0 -235 -235 0 -235 0 0 235 0 235 235 0 235 0 0 -235z m510 0 l0 -235 -235 0
-235 0 0 235 0 235 235 0 235 0 0 -235z m510 0 l0 -235 -235 0 -235 0 0 235 0
235 235 0 235 0 0 -235z m510 0 l0 -235 -235 0 -235 0 0 235 0 235 235 0 235
0 0 -235z m-5100 -505 l0 -230 -235 0 -235 0 0 230 0 230 235 0 235 0 0 -230z
m510 0 l0 -230 -235 0 -235 0 0 230 0 230 235 0 235 0 0 -230z m510 0 l0 -230
-235 0 -235 0 0 230 0 230 235 0 235 0 0 -230z m510 0 l0 -230 -235 0 -235 0
0 230 0 230 235 0 235 0 0 -230z m510 0 l0 -230 -235 0 -235 0 0 230 0 230
235 0 235 0 0 -230z m510 0 l0 -230 -235 0 -235 0 0 230 0 230 235 0 235 0 0
-230z m510 0 l0 -230 -235 0 -235 0 0 230 0 230 235 0 235 0 0 -230z m510 0
l0 -230 -235 0 -235 0 0 230 0 230 235 0 235 0 0 -230z m510 0 l0 -230 -235 0
-235 0 0 230 0 230 235 0 235 0 0 -230z m510 0 l0 -230 -235 0 -235 0 0 230 0
230 235 0 235 0 0 -230z m510 0 l0 -230 -235 0 -235 0 0 230 0 230 235 0 235
0 0 -230z m-5100 -495 l0 -235 -235 0 -235 0 0 235 0 235 235 0 235 0 0 -235z
m510 0 l0 -235 -235 0 -235 0 0 235 0 235 235 0 235 0 0 -235z m510 0 l0 -235
-235 0 -235 0 0 235 0 235 235 0 235 0 0 -235z m510 0 l0 -235 -235 0 -235 0
0 235 0 235 235 0 235 0 0 -235z m510 0 l0 -235 -235 0 -235 0 0 235 0 235
235 0 235 0 0 -235z m510 0 l0 -235 -235 0 -235 0 0 235 0 235 235 0 235 0 0
-235z m510 0 l0 -235 -235 0 -235 0 0 235 0 235 235 0 235 0 0 -235z m510 0
l0 -235 -235 0 -235 0 0 235 0 235 235 0 235 0 0 -235z m510 0 l0 -235 -235 0
-235 0 0 235 0 235 235 0 235 0 0 -235z m510 0 l0 -235 -235 0 -235 0 0 235 0
235 235 0 235 0 0 -235z m510 0 l0 -235 -235 0 -235 0 0 235 0 235 235 0 235
0 0 -235z m-5100 -510 l0 -235 -235 0 -235 0 0 235 0 235 235 0 235 0 0 -235z
m510 0 l0 -235 -235 0 -235 0 0 235 0 235 235 0 235 0 0 -235z m510 0 l0 -235
-235 0 -235 0 0 235 0 235 235 0 235 0 0 -235z m510 0 l0 -235 -235 0 -235 0
0 235 0 235 235 0 235 0 0 -235z m510 0 l0 -235 -235 0 -235 0 0 235 0 235
235 0 235 0 0 -235z m510 0 l0 -235 -235 0 -235 0 0 235 0 235 235 0 235 0 0
-235z m510 0 l0 -235 -235 0 -235 0 0 235 0 235 235 0 235 0 0 -235z m510 0
l0 -235 -235 0 -235 0 0 235 0 235 235 0 235 0 0 -235z m510 0 l0 -235 -235 0
-235 0 0 235 0 235 235 0 235 0 0 -235z m510 0 l0 -235 -235 0 -235 0 0 235 0
235 235 0 235 0 0 -235z m510 0 l0 -235 -235 0 -235 0 0 235 0 235 235 0 235
0 0 -235z m-5100 -500 l0 -235 -235 0 -235 0 0 235 0 235 235 0 235 0 0 -235z
m510 0 l0 -235 -235 0 -235 0 0 235 0 235 235 0 235 0 0 -235z m510 0 l0 -235
-235 0 -235 0 0 235 0 235 235 0 235 0 0 -235z m510 0 l0 -235 -235 0 -235 0
0 235 0 235 235 0 235 0 0 -235z m510 0 l0 -235 -235 0 -235 0 0 235 0 235
235 0 235 0 0 -235z m510 0 l0 -235 -235 0 -235 0 0 235 0 235 235 0 235 0 0
-235z m510 0 l0 -235 -235 0 -235 0 0 235 0 235 235 0 235 0 0 -235z m510 0
l0 -235 -235 0 -235 0 0 235 0 235 235 0 235 0 0 -235z m510 0 l0 -235 -235 0
-235 0 0 235 0 235 235 0 235 0 0 -235z m510 0 l0 -235 -235 0 -235 0 0 235 0
235 235 0 235 0 0 -235z m510 0 l0 -235 -235 0 -235 0 0 235 0 235 235 0 235
0 0 -235z m-5100 -510 l0 -235 -235 0 -235 0 0 235 0 235 235 0 235 0 0 -235z
m510 0 l0 -235 -235 0 -235 0 0 235 0 235 235 0 235 0 0 -235z m510 0 l0 -235
-235 0 -235 0 0 235 0 235 235 0 235 0 0 -235z m510 0 l0 -235 -235 0 -235 0
0 235 0 235 235 0 235 0 0 -235z m510 0 l0 -235 -235 0 -235 0 0 235 0 235
235 0 235 0 0 -235z m510 0 l0 -235 -235 0 -235 0 0 235 0 235 235 0 235 0 0
-235z m510 0 l0 -235 -235 0 -235 0 0 235 0 235 235 0 235 0 0 -235z m510 0
l0 -235 -235 0 -235 0 0 235 0 235 235 0 235 0 0 -235z m510 0 l0 -235 -235 0
-235 0 0 235 0 235 235 0 235 0 0 -235z m510 0 l0 -235 -235 0 -235 0 0 235 0
235 235 0 235 0 0 -235z m510 0 l0 -235 -235 0 -235 0 0 235 0 235 235 0 235
0 0 -235z m-4590 -510 l0 -235 -235 0 -235 0 0 235 0 235 235 0 235 0 0 -235z
m510 0 l0 -235 -235 0 -235 0 0 235 0 235 235 0 235 0 0 -235z m510 0 l0 -235
-235 0 -235 0 0 235 0 235 235 0 235 0 0 -235z m510 0 l0 -235 -235 0 -235 0
0 235 0 235 235 0 235 0 0 -235z m510 0 l0 -235 -235 0 -235 0 0 235 0 235
235 0 235 0 0 -235z m510 0 l0 -235 -235 0 -235 0 0 235 0 235 235 0 235 0 0
-235z m510 0 l0 -235 -235 0 -235 0 0 235 0 235 235 0 235 0 0 -235z m510 0
l0 -235 -235 0 -235 0 0 235 0 235 235 0 235 0 0 -235z m510 0 l0 -235 -235 0
-235 0 0 235 0 235 235 0 235 0 0 -235z"/>
<path d="M5490 5425 l-105 -105 113 -113 112 -112 0 205 c0 113 -4 211 -8 217
-5 9 -41 -21 -112 -92z"/>
<path d="M5495 370 l-110 -110 105 -105 c79 -79 106 -101 112 -90 5 8 7 104 6
215 l-3 200 -110 -110z"/>
</g>
</svg>
