<?xml version="1.0" standalone="no"?>
<!DOCTYPE svg PUBLIC "-//W3C//DTD SVG 20010904//EN"
 "http://www.w3.org/TR/2001/REC-SVG-20010904/DTD/svg10.dtd">
<svg version="1.0" xmlns="http://www.w3.org/2000/svg"
 width="562.000000pt" height="560.000000pt" viewBox="0 0 562.000000 560.000000"
 preserveAspectRatio="xMidYMid meet">
<metadata>
Created by potrace 1.16, written by Peter Selinger 2001-2019
</metadata>
<g transform="translate(0.000000,560.000000) scale(0.100000,-0.100000)"
fill="#000000" stroke="none">
<path d="M72 5580 c-18 -11 -41 -34 -52 -52 -20 -33 -20 -56 -20 -2731 0
-2948 -4 -2728 56 -2776 l27 -21 2734 0 2735 0 34 34 34 34 0 2725 0 2724 -21
27 c-48 60 173 56 -2786 56 -2685 0 -2708 0 -2741 -20z m343 -140 l-110 -110
103 -103 c56 -56 102 -108 102 -115 0 -28 -30 -7 -127 90 l-103 103 -108 -108
c-59 -59 -111 -107 -115 -107 -27 0 7 49 95 137 l103 103 -90 90 c-71 71 -87
92 -77 102 10 10 31 -6 102 -77 l90 -90 98 98 c71 71 104 97 122 97 21 0 9
-15 -85 -110z m595 -115 l0 -225 -235 0 -235 0 0 225 0 225 235 0 235 0 0
-225z m510 0 l0 -225 -235 0 -235 0 0 225 0 225 235 0 235 0 0 -225z m510 0
l0 -225 -235 0 -235 0 0 225 0 225 235 0 235 0 0 -225z m510 0 l0 -225 -235 0
-235 0 0 225 0 225 235 0 235 0 0 -225z m510 0 l0 -225 -235 0 -235 0 0 225 0
225 235 0 235 0 0 -225z m510 0 l0 -225 -235 0 -235 0 0 225 0 225 235 0 235
0 0 -225z m510 0 l0 -225 -235 0 -235 0 0 225 0 225 235 0 235 0 0 -225z m510
0 l0 -225 -235 0 -235 0 0 225 0 225 235 0 235 0 0 -225z m510 0 l0 -225 -235
0 -235 0 0 225 0 225 235 0 235 0 0 -225z m172 128 l98 -98 88 88 c69 69 90
85 100 75 10 -10 -6 -31 -75 -100 l-88 -88 93 -93 c66 -66 92 -99 92 -117 0
-21 -15 -10 -105 80 l-105 105 -108 -108 c-101 -101 -132 -123 -132 -95 0 7
48 61 107 120 l108 108 -110 110 c-94 94 -106 110 -85 110 18 0 52 -27 122
-97z m-4762 -628 l0 -235 -225 0 -225 0 0 235 0 235 225 0 225 0 0 -235z m510
0 l0 -235 -235 0 -235 0 0 235 0 235 235 0 235 0 0 -235z m510 0 l0 -235 -235
0 -235 0 0 235 0 235 235 0 235 0 0 -235z m510 0 l0 -235 -235 0 -235 0 0 235
0 235 235 0 235 0 0 -235z m510 0 l0 -235 -235 0 -235 0 0 235 0 235 235 0
235 0 0 -235z m510 0 l0 -235 -235 0 -235 0 0 235 0 235 235 0 235 0 0 -235z
m510 0 l0 -235 -235 0 -235 0 0 235 0 235 235 0 235 0 0 -235z m510 0 l0 -235
-235 0 -235 0 0 235 0 235 235 0 235 0 0 -235z m510 0 l0 -235 -235 0 -235 0
0 235 0 235 235 0 235 0 0 -235z m510 0 l0 -235 -235 0 -235 0 0 235 0 235
235 0 235 0 0 -235z m480 0 l0 -235 -220 0 -220 0 0 235 0 235 220 0 220 0 0
-235z m-5070 -510 l0 -235 -225 0 -225 0 0 235 0 235 225 0 225 0 0 -235z
m510 0 l0 -235 -235 0 -235 0 0 235 0 235 235 0 235 0 0 -235z m510 0 l0 -235
-235 0 -235 0 0 235 0 235 235 0 235 0 0 -235z m510 0 l0 -235 -235 0 -235 0
0 235 0 235 235 0 235 0 0 -235z m510 0 l0 -235 -235 0 -235 0 0 235 0 235
235 0 235 0 0 -235z m510 0 l0 -235 -235 0 -235 0 0 235 0 235 235 0 235 0 0
-235z m510 0 l0 -235 -235 0 -235 0 0 235 0 235 235 0 235 0 0 -235z m510 0
l0 -235 -235 0 -235 0 0 235 0 235 235 0 235 0 0 -235z m510 0 l0 -235 -235 0
-235 0 0 235 0 235 235 0 235 0 0 -235z m510 0 l0 -235 -235 0 -235 0 0 235 0
235 235 0 235 0 0 -235z m480 0 l0 -235 -220 0 -220 0 0 235 0 235 220 0 220
0 0 -235z m-5070 -510 l0 -235 -225 0 -225 0 0 235 0 235 225 0 225 0 0 -235z
m510 0 l0 -235 -235 0 -235 0 0 235 0 235 235 0 235 0 0 -235z m510 0 l0 -235
-235 0 -235 0 0 235 0 235 235 0 235 0 0 -235z m510 0 l0 -235 -235 0 -235 0
0 235 0 235 235 0 235 0 0 -235z m510 0 l0 -235 -235 0 -235 0 0 235 0 235
235 0 235 0 0 -235z m510 0 l0 -235 -235 0 -235 0 0 235 0 235 235 0 235 0 0
-235z m510 0 l0 -235 -235 0 -235 0 0 235 0 235 235 0 235 0 0 -235z m510 0
l0 -235 -235 0 -235 0 0 235 0 235 235 0 235 0 0 -235z m510 0 l0 -235 -235 0
-235 0 0 235 0 235 235 0 235 0 0 -235z m510 0 l0 -235 -235 0 -235 0 0 235 0
235 235 0 235 0 0 -235z m480 0 l0 -235 -220 0 -220 0 0 235 0 235 220 0 220
0 0 -235z m-5070 -510 l0 -235 -225 0 -225 0 0 235 0 235 225 0 225 0 0 -235z
m510 0 l0 -235 -235 0 -235 0 0 235 0 235 235 0 235 0 0 -235z m510 0 l0 -235
-235 0 -235 0 0 235 0 235 235 0 235 0 0 -235z m510 0 l0 -235 -235 0 -235 0
0 235 0 235 235 0 235 0 0 -235z m510 0 l0 -235 -235 0 -235 0 0 235 0 235
235 0 235 0 0 -235z m510 0 l0 -235 -235 0 -235 0 0 235 0 235 235 0 235 0 0
-235z m510 0 l0 -235 -235 0 -235 0 0 235 0 235 235 0 235 0 0 -235z m510 0
l0 -235 -235 0 -235 0 0 235 0 235 235 0 235 0 0 -235z m510 0 l0 -235 -235 0
-235 0 0 235 0 235 235 0 235 0 0 -235z m510 0 l0 -235 -235 0 -235 0 0 235 0
235 235 0 235 0 0 -235z m480 0 l0 -235 -220 0 -220 0 0 235 0 235 220 0 220
0 0 -235z m-5070 -505 l0 -230 -225 0 -225 0 0 230 0 230 225 0 225 0 0 -230z
m510 0 l0 -230 -235 0 -235 0 0 230 0 230 235 0 235 0 0 -230z m510 0 l0 -230
-235 0 -235 0 0 230 0 230 235 0 235 0 0 -230z m510 0 l0 -230 -235 0 -235 0
0 230 0 230 235 0 235 0 0 -230z m510 0 l0 -230 -235 0 -235 0 0 230 0 230
235 0 235 0 0 -230z m510 0 l0 -230 -235 0 -235 0 0 230 0 230 235 0 235 0 0
-230z m510 0 l0 -230 -235 0 -235 0 0 230 0 230 235 0 235 0 0 -230z m510 0
l0 -230 -235 0 -235 0 0 230 0 230 235 0 235 0 0 -230z m510 0 l0 -230 -235 0
-235 0 0 230 0 230 235 0 235 0 0 -230z m510 0 l0 -230 -235 0 -235 0 0 230 0
230 235 0 235 0 0 -230z m480 0 l0 -230 -220 0 -220 0 0 230 0 230 220 0 220
0 0 -230z m-5070 -495 l0 -235 -225 0 -225 0 0 235 0 235 225 0 225 0 0 -235z
m510 0 l0 -235 -235 0 -235 0 0 235 0 235 235 0 235 0 0 -235z m510 0 l0 -235
-235 0 -235 0 0 235 0 235 235 0 235 0 0 -235z m510 0 l0 -235 -235 0 -235 0
0 235 0 235 235 0 235 0 0 -235z m510 0 l0 -235 -235 0 -235 0 0 235 0 235
235 0 235 0 0 -235z m510 0 l0 -235 -235 0 -235 0 0 235 0 235 235 0 235 0 0
-235z m510 0 l0 -235 -235 0 -235 0 0 235 0 235 235 0 235 0 0 -235z m510 0
l0 -235 -235 0 -235 0 0 235 0 235 235 0 235 0 0 -235z m510 0 l0 -235 -235 0
-235 0 0 235 0 235 235 0 235 0 0 -235z m510 0 l0 -235 -235 0 -235 0 0 235 0
235 235 0 235 0 0 -235z m480 0 l0 -235 -220 0 -220 0 0 235 0 235 220 0 220
0 0 -235z m-5070 -510 l0 -235 -225 0 -225 0 0 235 0 235 225 0 225 0 0 -235z
m510 0 l0 -235 -235 0 -235 0 0 235 0 235 235 0 235 0 0 -235z m510 0 l0 -235
-235 0 -235 0 0 235 0 235 235 0 235 0 0 -235z m510 0 l0 -235 -235 0 -235 0
0 235 0 235 235 0 235 0 0 -235z m510 0 l0 -235 -235 0 -235 0 0 235 0 235
235 0 235 0 0 -235z m510 0 l0 -235 -235 0 -235 0 0 235 0 235 235 0 235 0 0
-235z m510 0 l0 -235 -235 0 -235 0 0 235 0 235 235 0 235 0 0 -235z m510 0
l0 -235 -235 0 -235 0 0 235 0 235 235 0 235 0 0 -235z m510 0 l0 -235 -235 0
-235 0 0 235 0 235 235 0 235 0 0 -235z m510 0 l0 -235 -235 0 -235 0 0 235 0
235 235 0 235 0 0 -235z m480 0 l0 -235 -220 0 -220 0 0 235 0 235 220 0 220
0 0 -235z m-5070 -500 l0 -235 -225 0 -225 0 0 235 0 235 225 0 225 0 0 -235z
m510 0 l0 -235 -235 0 -235 0 0 235 0 235 235 0 235 0 0 -235z m510 0 l0 -235
-235 0 -235 0 0 235 0 235 235 0 235 0 0 -235z m510 0 l0 -235 -235 0 -235 0
0 235 0 235 235 0 235 0 0 -235z m510 0 l0 -235 -235 0 -235 0 0 235 0 235
235 0 235 0 0 -235z m510 0 l0 -235 -235 0 -235 0 0 235 0 235 235 0 235 0 0
-235z m510 0 l0 -235 -235 0 -235 0 0 235 0 235 235 0 235 0 0 -235z m510 0
l0 -235 -235 0 -235 0 0 235 0 235 235 0 235 0 0 -235z m510 0 l0 -235 -235 0
-235 0 0 235 0 235 235 0 235 0 0 -235z m510 0 l0 -235 -235 0 -235 0 0 235 0
235 235 0 235 0 0 -235z m480 0 l0 -235 -220 0 -220 0 0 235 0 235 220 0 220
0 0 -235z m-5070 -510 l0 -235 -225 0 -225 0 0 235 0 235 225 0 225 0 0 -235z
m510 0 l0 -235 -235 0 -235 0 0 235 0 235 235 0 235 0 0 -235z m510 0 l0 -235
-235 0 -235 0 0 235 0 235 235 0 235 0 0 -235z m510 0 l0 -235 -235 0 -235 0
0 235 0 235 235 0 235 0 0 -235z m510 0 l0 -235 -235 0 -235 0 0 235 0 235
235 0 235 0 0 -235z m510 0 l0 -235 -235 0 -235 0 0 235 0 235 235 0 235 0 0
-235z m510 0 l0 -235 -235 0 -235 0 0 235 0 235 235 0 235 0 0 -235z m510 0
l0 -235 -235 0 -235 0 0 235 0 235 235 0 235 0 0 -235z m510 0 l0 -235 -235 0
-235 0 0 235 0 235 235 0 235 0 0 -235z m510 0 l0 -235 -235 0 -235 0 0 235 0
235 235 0 235 0 0 -235z m480 0 l0 -235 -220 0 -220 0 0 235 0 235 220 0 220
0 0 -235z m-323 -367 l113 -113 105 105 c90 90 105 101 105 80 0 -18 -26 -51
-92 -117 l-93 -93 90 -90 c71 -71 87 -92 77 -102 -10 -10 -31 6 -102 77 l-90
90 -98 -98 c-70 -70 -104 -97 -122 -97 -21 0 -9 16 85 110 l110 110 -113 113
c-61 62 -112 118 -112 125 0 28 31 6 137 -100z m-4877 -3 c99 99 130 121 130
92 0 -7 -47 -59 -105 -117 l-105 -105 112 -112 c97 -97 109 -113 88 -113 -19
0 -52 27 -125 100 l-100 100 -90 -90 c-72 -72 -93 -88 -103 -78 -10 10 6 31
78 103 l90 90 -95 95 c-69 69 -95 101 -95 120 0 21 15 10 108 -83 l107 -107
105 105z m640 -130 l0 -225 -235 0 -235 0 0 225 0 225 235 0 235 0 0 -225z
m510 0 l0 -225 -235 0 -235 0 0 225 0 225 235 0 235 0 0 -225z m510 0 l0 -225
-235 0 -235 0 0 225 0 225 235 0 235 0 0 -225z m510 0 l0 -225 -235 0 -235 0
0 225 0 225 235 0 235 0 0 -225z m510 0 l0 -225 -235 0 -235 0 0 225 0 225
235 0 235 0 0 -225z m510 0 l0 -225 -235 0 -235 0 0 225 0 225 235 0 235 0 0
-225z m510 0 l0 -225 -235 0 -235 0 0 225 0 225 235 0 235 0 0 -225z m510 0
l0 -225 -235 0 -235 0 0 225 0 225 235 0 235 0 0 -225z m510 0 l0 -225 -235 0
-235 0 0 225 0 225 235 0 235 0 0 -225z"/>
<path d="M1725 5490 c-11 -4 -33 -22 -50 -39 -26 -28 -30 -40 -33 -104 -2 -59
1 -78 17 -105 32 -50 76 -72 146 -72 108 0 165 57 165 165 0 108 -58 165 -165
164 -33 0 -69 -4 -80 -9z m151 -42 c65 -45 83 -120 43 -185 -26 -41 -66 -63
-116 -63 -48 1 -76 16 -108 60 -85 115 63 269 181 188z"/>
<path d="M2215 5480 c-11 -4 -33 -22 -50 -39 -26 -28 -30 -40 -33 -104 -2 -59
1 -78 17 -105 32 -50 76 -72 146 -72 108 0 165 57 165 165 0 108 -58 165 -165
164 -33 0 -69 -4 -80 -9z m151 -42 c65 -45 83 -120 43 -185 -26 -41 -66 -63
-116 -63 -48 1 -76 16 -108 60 -85 115 63 269 181 188z"/>
<path d="M2735 5480 c-11 -4 -33 -22 -50 -39 -26 -28 -30 -40 -33 -104 -2 -59
1 -78 17 -105 32 -50 76 -72 146 -72 108 0 165 57 165 165 0 108 -58 165 -165
164 -33 0 -69 -4 -80 -9z m151 -42 c65 -45 83 -120 43 -185 -26 -41 -66 -63
-116 -63 -48 1 -76 16 -108 60 -85 115 63 269 181 188z"/>
<path d="M3245 5470 c-11 -4 -33 -22 -50 -39 -26 -28 -30 -40 -33 -104 -2 -59
1 -78 17 -105 32 -50 76 -72 146 -72 108 0 165 57 165 165 0 108 -58 165 -165
164 -33 0 -69 -4 -80 -9z m151 -42 c65 -45 83 -120 43 -185 -26 -41 -66 -63
-116 -63 -48 1 -76 16 -108 60 -85 115 63 269 181 188z"/>
<path d="M3765 5480 c-11 -4 -33 -22 -50 -39 -26 -28 -30 -40 -33 -104 -2 -59
1 -78 17 -105 32 -50 76 -72 146 -72 108 0 165 57 165 165 0 108 -58 165 -165
164 -33 0 -69 -4 -80 -9z m151 -42 c65 -45 83 -120 43 -185 -26 -41 -66 -63
-116 -63 -48 1 -76 16 -108 60 -85 115 63 269 181 188z"/>
<path d="M2735 4970 c-11 -4 -33 -22 -50 -39 -26 -28 -30 -40 -33 -104 -2 -59
1 -78 17 -105 32 -50 76 -72 146 -72 108 0 165 57 165 165 0 108 -58 165 -165
164 -33 0 -69 -4 -80 -9z m151 -42 c65 -45 83 -120 43 -185 -26 -41 -66 -63
-116 -63 -48 1 -76 16 -108 60 -85 115 63 269 181 188z"/>
<path d="M175 3950 c-11 -4 -33 -22 -50 -39 -26 -28 -30 -40 -33 -104 -2 -59
1 -78 17 -105 32 -50 76 -72 146 -72 108 0 165 57 165 165 0 108 -58 165 -165
164 -33 0 -69 -4 -80 -9z m151 -42 c65 -45 83 -120 43 -185 -26 -41 -66 -63
-116 -63 -48 1 -76 16 -108 60 -85 115 63 269 181 188z"/>
<path d="M2735 3960 c-11 -4 -33 -22 -50 -39 -26 -28 -30 -40 -33 -104 -2 -59
1 -78 17 -105 32 -50 76 -72 146 -72 108 0 165 57 165 165 0 108 -58 165 -165
164 -33 0 -69 -4 -80 -9z"/>
<path d="M5275 3950 c-11 -4 -33 -22 -50 -39 -26 -28 -30 -40 -33 -104 -2 -59
1 -78 17 -105 32 -50 76 -72 146 -72 108 0 165 57 165 165 0 108 -58 165 -165
164 -33 0 -69 -4 -80 -9z m151 -42 c65 -45 83 -120 43 -185 -26 -41 -66 -63
-116 -63 -48 1 -76 16 -108 60 -85 115 63 269 181 188z"/>
<path d="M185 3440 c-11 -4 -33 -22 -50 -39 -26 -28 -30 -40 -33 -104 -2 -59
1 -78 17 -105 32 -50 76 -72 146 -72 108 0 165 57 165 165 0 108 -58 165 -165
164 -33 0 -69 -4 -80 -9z m151 -42 c65 -45 83 -120 43 -185 -26 -41 -66 -63
-116 -63 -48 1 -76 16 -108 60 -85 115 63 269 181 188z"/>
<path d="M2245 3460 c-11 -4 -33 -22 -50 -39 -26 -28 -30 -40 -33 -104 -2 -59
1 -78 17 -105 32 -50 76 -72 146 -72 108 0 165 57 165 165 0 108 -58 165 -165
164 -33 0 -69 -4 -80 -9z"/>
<path d="M2735 3460 c-11 -4 -33 -22 -50 -39 -26 -28 -30 -40 -33 -104 -2 -59
1 -78 17 -105 32 -50 76 -72 146 -72 108 0 165 57 165 165 0 108 -58 165 -165
164 -33 0 -69 -4 -80 -9z"/>
<path d="M3245 3450 c-11 -4 -33 -22 -50 -39 -26 -28 -30 -40 -33 -104 -2 -59
1 -78 17 -105 32 -50 76 -72 146 -72 108 0 165 57 165 165 0 108 -58 165 -165
164 -33 0 -69 -4 -80 -9z"/>
<path d="M5285 3450 c-11 -4 -33 -22 -50 -39 -26 -28 -30 -40 -33 -104 -2 -59
1 -78 17 -105 32 -50 76 -72 146 -72 108 0 165 57 165 165 0 108 -58 165 -165
164 -33 0 -69 -4 -80 -9z m151 -42 c65 -45 83 -120 43 -185 -26 -41 -66 -63
-116 -63 -48 1 -76 16 -108 60 -85 115 63 269 181 188z"/>
<path d="M185 2940 c-11 -4 -33 -22 -50 -39 -26 -28 -30 -40 -33 -104 -2 -59
1 -78 17 -105 32 -50 76 -72 146 -72 108 0 165 57 165 165 0 108 -58 165 -165
164 -33 0 -69 -4 -80 -9z m151 -42 c65 -45 83 -120 43 -185 -26 -41 -66 -63
-116 -63 -48 1 -76 16 -108 60 -85 115 63 269 181 188z"/>
<path d="M695 2940 c-11 -4 -33 -22 -50 -39 -26 -28 -30 -40 -33 -104 -2 -59
1 -78 17 -105 32 -50 76 -72 146 -72 108 0 165 57 165 165 0 108 -58 165 -165
164 -33 0 -69 -4 -80 -9z m151 -42 c65 -45 83 -120 43 -185 -26 -41 -66 -63
-116 -63 -48 1 -76 16 -108 60 -85 115 63 269 181 188z"/>
<path d="M1715 2960 c-11 -4 -33 -22 -50 -39 -26 -28 -30 -40 -33 -104 -2 -59
1 -78 17 -105 32 -50 76 -72 146 -72 108 0 165 57 165 165 0 108 -58 165 -165
164 -33 0 -69 -4 -80 -9z"/>
<path d="M2245 2960 c-11 -4 -33 -22 -50 -39 -26 -28 -30 -40 -33 -104 -2 -59
1 -78 17 -105 32 -50 76 -72 146 -72 108 0 165 57 165 165 0 108 -58 165 -165
164 -33 0 -69 -4 -80 -9z"/>
<path d="M2725 2960 c-11 -4 -33 -22 -50 -39 -26 -28 -30 -40 -33 -104 -2 -59
1 -78 17 -105 32 -50 76 -72 146 -72 108 0 165 57 165 165 0 108 -58 165 -165
164 -33 0 -69 -4 -80 -9z"/>
<path d="M3245 2950 c-11 -4 -33 -22 -50 -39 -26 -28 -30 -40 -33 -104 -2 -59
1 -78 17 -105 32 -50 76 -72 146 -72 108 0 165 57 165 165 0 108 -58 165 -165
164 -33 0 -69 -4 -80 -9z"/>
<path d="M3745 2960 c-11 -4 -33 -22 -50 -39 -26 -28 -30 -40 -33 -104 -2 -59
1 -78 17 -105 32 -50 76 -72 146 -72 108 0 165 57 165 165 0 108 -58 165 -165
164 -33 0 -69 -4 -80 -9z"/>
<path d="M4785 2930 c-11 -4 -33 -22 -50 -39 -26 -28 -30 -40 -33 -104 -2 -59
1 -78 17 -105 32 -50 76 -72 146 -72 108 0 165 57 165 165 0 108 -58 165 -165
164 -33 0 -69 -4 -80 -9z m151 -42 c65 -45 83 -120 43 -185 -26 -41 -66 -63
-116 -63 -48 1 -76 16 -108 60 -85 115 63 269 181 188z"/>
<path d="M5275 2930 c-11 -4 -33 -22 -50 -39 -26 -28 -30 -40 -33 -104 -2 -59
1 -78 17 -105 32 -50 76 -72 146 -72 108 0 165 57 165 165 0 108 -58 165 -165
164 -33 0 -69 -4 -80 -9z m151 -42 c65 -45 83 -120 43 -185 -26 -41 -66 -63
-116 -63 -48 1 -76 16 -108 60 -85 115 63 269 181 188z"/>
<path d="M185 2440 c-11 -4 -33 -22 -50 -39 -26 -28 -30 -40 -33 -104 -2 -59
1 -78 17 -105 32 -50 76 -72 146 -72 108 0 165 57 165 165 0 108 -58 165 -165
164 -33 0 -69 -4 -80 -9z m151 -42 c65 -45 83 -120 43 -185 -26 -41 -66 -63
-116 -63 -48 1 -76 16 -108 60 -85 115 63 269 181 188z"/>
<path d="M2225 2470 c-11 -4 -33 -22 -50 -39 -26 -28 -30 -40 -33 -104 -2 -59
1 -78 17 -105 32 -50 76 -72 146 -72 108 0 165 57 165 165 0 108 -58 165 -165
164 -33 0 -69 -4 -80 -9z"/>
<path d="M2725 2450 c-11 -4 -33 -22 -50 -39 -26 -28 -30 -40 -33 -104 -2 -59
1 -78 17 -105 32 -50 76 -72 146 -72 108 0 165 57 165 165 0 108 -58 165 -165
164 -33 0 -69 -4 -80 -9z"/>
<path d="M3245 2460 c-11 -4 -33 -22 -50 -39 -26 -28 -30 -40 -33 -104 -2 -59
1 -78 17 -105 32 -50 76 -72 146 -72 108 0 165 57 165 165 0 108 -58 165 -165
164 -33 0 -69 -4 -80 -9z"/>
<path d="M5275 2450 c-11 -4 -33 -22 -50 -39 -26 -28 -30 -40 -33 -104 -2 -59
1 -78 17 -105 32 -50 76 -72 146 -72 108 0 165 57 165 165 0 108 -58 165 -165
164 -33 0 -69 -4 -80 -9z m151 -42 c65 -45 83 -120 43 -185 -26 -41 -66 -63
-116 -63 -48 1 -76 16 -108 60 -85 115 63 269 181 188z"/>
<path d="M185 1940 c-11 -4 -33 -22 -50 -39 -26 -28 -30 -40 -33 -104 -2 -59
1 -78 17 -105 32 -50 76 -72 146 -72 108 0 165 57 165 165 0 108 -58 165 -165
164 -33 0 -69 -4 -80 -9z m151 -42 c65 -45 83 -120 43 -185 -26 -41 -66 -63
-116 -63 -48 1 -76 16 -108 60 -85 115 63 269 181 188z"/>
<path d="M2725 1950 c-11 -4 -33 -22 -50 -39 -26 -28 -30 -40 -33 -104 -2 -59
1 -78 17 -105 32 -50 76 -72 146 -72 108 0 165 57 165 165 0 108 -58 165 -165
164 -33 0 -69 -4 -80 -9z"/>
<path d="M5275 1950 c-11 -4 -33 -22 -50 -39 -26 -28 -30 -40 -33 -104 -2 -59
1 -78 17 -105 32 -50 76 -72 146 -72 108 0 165 57 165 165 0 108 -58 165 -165
164 -33 0 -69 -4 -80 -9z m151 -42 c65 -45 83 -120 43 -185 -26 -41 -66 -63
-116 -63 -48 1 -76 16 -108 60 -85 115 63 269 181 188z"/>
<path d="M2735 930 c-11 -4 -33 -22 -50 -39 -26 -28 -30 -40 -33 -104 -2 -59
1 -78 17 -105 32 -50 76 -72 146 -72 108 0 165 57 165 165 0 108 -58 165 -165
164 -33 0 -69 -4 -80 -9z m151 -42 c65 -45 83 -120 43 -185 -26 -41 -66 -63
-116 -63 -48 1 -76 16 -108 60 -85 115 63 269 181 188z"/>
<path d="M1715 420 c-11 -4 -33 -22 -50 -39 -26 -28 -30 -40 -33 -104 -2 -59
1 -78 17 -105 32 -50 76 -72 146 -72 108 0 165 57 165 165 0 108 -58 165 -165
164 -33 0 -69 -4 -80 -9z m151 -42 c65 -45 83 -120 43 -185 -26 -41 -66 -63
-116 -63 -48 1 -76 16 -108 60 -85 115 63 269 181 188z"/>
<path d="M2235 410 c-11 -4 -33 -22 -50 -39 -26 -28 -30 -40 -33 -104 -2 -59
1 -78 17 -105 32 -50 76 -72 146 -72 108 0 165 57 165 165 0 108 -58 165 -165
164 -33 0 -69 -4 -80 -9z m151 -42 c65 -45 83 -120 43 -185 -26 -41 -66 -63
-116 -63 -48 1 -76 16 -108 60 -85 115 63 269 181 188z"/>
<path d="M2735 400 c-11 -4 -33 -22 -50 -39 -26 -28 -30 -40 -33 -104 -2 -59
1 -78 17 -105 32 -50 76 -72 146 -72 108 0 165 57 165 165 0 108 -58 165 -165
164 -33 0 -69 -4 -80 -9z m151 -42 c65 -45 83 -120 43 -185 -26 -41 -66 -63
-116 -63 -48 1 -76 16 -108 60 -85 115 63 269 181 188z"/>
<path d="M3245 410 c-11 -4 -33 -22 -50 -39 -26 -28 -30 -40 -33 -104 -2 -59
1 -78 17 -105 32 -50 76 -72 146 -72 108 0 165 57 165 165 0 108 -58 165 -165
164 -33 0 -69 -4 -80 -9z m151 -42 c65 -45 83 -120 43 -185 -26 -41 -66 -63
-116 -63 -48 1 -76 16 -108 60 -85 115 63 269 181 188z"/>
<path d="M3745 420 c-11 -4 -33 -22 -50 -39 -26 -28 -30 -40 -33 -104 -2 -59
1 -78 17 -105 32 -50 76 -72 146 -72 108 0 165 57 165 165 0 108 -58 165 -165
164 -33 0 -69 -4 -80 -9z m151 -42 c65 -45 83 -120 43 -185 -26 -41 -66 -63
-116 -63 -48 1 -76 16 -108 60 -85 115 63 269 181 188z"/>
</g>
</svg>
